<svg id="svg" version="1.1" xmlns="http://www.w3.org/2000/svg" xmlns:xlink="http://www.w3.org/1999/xlink" width="400" height="247.27272727272728" viewBox="0, 0, 400,247.27272727272728"><g id="svgg"><path id="path0" d="M27.026 24.185 C 25.880 24.312,25.955 17.506,26.030 114.657 L 26.098 203.958 26.634 204.824 C 26.928 205.300,27.354 206.413,27.580 207.297 C 27.806 208.182,28.300 209.406,28.677 210.019 C 29.055 210.631,29.505 211.494,29.678 211.936 C 29.851 212.378,30.085 212.740,30.199 212.740 C 30.313 212.740,30.709 213.268,31.081 213.915 C 32.116 215.718,32.824 216.522,36.728 220.329 C 37.172 220.762,37.967 221.297,38.496 221.518 C 39.024 221.738,39.734 222.172,40.074 222.482 C 40.414 222.793,41.150 223.176,41.708 223.334 C 42.267 223.493,43.116 223.888,43.594 224.213 C 44.527 224.846,48.469 225.760,53.254 226.453 C 57.606 227.084,80.353 227.011,84.725 226.352 C 89.612 225.616,93.192 224.761,93.824 224.179 C 94.126 223.902,95.021 223.474,95.813 223.228 C 96.606 222.981,97.353 222.595,97.474 222.370 C 97.594 222.145,98.059 221.815,98.506 221.637 C 99.395 221.284,99.760 220.968,102.968 217.771 C 104.159 216.585,105.133 215.509,105.133 215.382 C 105.133 215.254,105.523 214.718,105.999 214.191 C 106.475 213.664,106.865 213.083,106.865 212.900 C 106.865 212.716,107.209 212.091,107.631 211.509 C 108.052 210.927,108.600 209.860,108.849 209.137 C 109.098 208.414,109.528 207.509,109.805 207.127 C 110.178 206.614,110.377 205.761,110.566 203.873 C 110.707 202.466,110.887 201.209,110.966 201.081 C 111.162 200.763,111.118 26.361,110.922 25.312 C 110.673 23.985,110.777 23.995,97.270 23.995 C 84.437 23.995,83.384 24.065,82.951 24.940 C 82.838 25.169,82.690 63.841,82.622 110.880 L 82.498 196.404 81.690 197.212 L 80.881 198.021 68.984 198.090 L 57.086 198.159 56.003 197.524 C 55.407 197.174,54.763 196.587,54.573 196.218 C 54.278 195.647,54.224 182.915,54.209 110.552 C 54.198 53.942,54.108 25.338,53.942 24.900 C 53.722 24.322,53.548 24.239,52.511 24.211 C 49.445 24.129,27.734 24.107,27.026 24.185 M136.425 24.299 C 136.017 24.445,135.602 24.686,135.502 24.836 C 135.402 24.986,135.322 70.080,135.325 125.046 L 135.330 224.985 136.405 225.665 L 137.479 226.345 149.197 226.344 C 160.998 226.342,162.377 226.252,163.053 225.437 C 163.333 225.100,163.410 216.991,163.513 177.142 C 163.628 132.326,163.664 129.191,164.067 128.300 L 164.497 127.348 165.261 127.991 C 165.681 128.344,166.124 128.633,166.246 128.633 C 166.682 128.633,167.223 130.116,167.614 132.379 C 167.832 133.644,168.224 135.096,168.484 135.607 C 168.745 136.118,169.172 137.808,169.434 139.364 C 169.696 140.919,170.141 142.644,170.424 143.198 C 170.706 143.751,171.117 145.293,171.338 146.623 C 171.558 147.953,171.961 149.539,172.233 150.147 C 172.505 150.755,172.890 152.146,173.089 153.239 C 173.289 154.332,173.764 156.061,174.145 157.081 C 174.527 158.101,174.960 159.827,175.107 160.915 C 175.255 162.004,175.648 163.562,175.980 164.378 C 176.313 165.195,176.719 166.809,176.882 167.965 C 177.045 169.122,177.324 170.235,177.502 170.440 C 178.043 171.061,178.294 171.972,178.587 174.377 C 178.743 175.660,179.131 177.306,179.464 178.097 C 179.792 178.878,180.231 180.569,180.438 181.856 C 180.645 183.143,181.038 184.703,181.312 185.322 C 181.586 185.941,181.989 187.605,182.208 189.019 C 182.431 190.457,182.866 192.134,183.195 192.826 C 183.519 193.506,183.963 195.121,184.181 196.413 C 184.399 197.706,184.726 198.996,184.909 199.280 C 185.359 199.982,185.713 201.367,186.037 203.697 C 186.192 204.808,186.566 206.139,186.906 206.790 C 187.272 207.490,187.610 208.746,187.777 210.027 C 187.928 211.179,188.319 212.733,188.646 213.482 C 188.974 214.230,189.398 215.955,189.589 217.316 C 189.803 218.837,190.183 220.314,190.575 221.150 C 190.926 221.899,191.215 222.800,191.216 223.154 C 191.228 226.295,191.490 226.350,206.567 226.347 L 219.071 226.345 219.997 225.397 L 220.923 224.448 220.639 222.119 C 220.461 220.663,220.423 218.769,220.537 217.069 C 220.638 215.572,220.685 183.234,220.642 145.207 C 220.599 107.180,220.583 75.343,220.607 74.459 C 220.798 67.399,220.599 26.213,220.369 25.448 C 219.929 23.977,220.104 23.995,206.324 23.995 C 194.310 23.995,193.721 24.016,193.163 24.468 L 192.579 24.941 192.455 73.757 C 192.321 126.558,192.417 123.309,190.976 124.054 C 189.637 124.747,189.224 124.108,188.737 120.594 C 188.567 119.369,188.179 117.700,187.874 116.883 C 187.568 116.067,187.129 114.230,186.897 112.801 C 186.665 111.373,186.249 109.723,185.971 109.135 C 185.694 108.546,185.303 106.988,185.102 105.671 C 184.901 104.355,184.473 102.659,184.151 101.903 C 183.828 101.146,183.401 99.437,183.200 98.104 C 183.000 96.770,182.671 95.497,182.468 95.273 C 181.880 94.623,181.621 93.712,181.359 91.370 C 181.187 89.837,180.927 88.843,180.493 88.064 C 180.090 87.339,179.777 86.219,179.597 84.848 C 179.420 83.503,179.144 82.500,178.829 82.064 C 178.357 81.409,178.232 80.895,177.614 77.056 C 177.461 76.104,177.165 75.063,176.957 74.743 C 176.749 74.422,176.360 72.920,176.093 71.403 C 175.827 69.886,175.341 67.902,175.014 66.994 C 174.688 66.085,174.286 64.360,174.122 63.160 C 173.957 61.959,173.518 60.198,173.146 59.246 C 172.773 58.293,172.346 56.579,172.196 55.437 C 172.047 54.295,171.814 53.228,171.680 53.066 C 171.202 52.490,170.692 50.646,170.432 48.550 C 170.269 47.241,169.992 46.178,169.711 45.783 C 169.181 45.039,168.817 43.738,168.594 41.792 C 168.507 41.036,168.153 39.811,167.807 39.071 C 167.444 38.292,167.042 36.762,166.855 35.443 C 166.677 34.188,166.293 32.668,166.001 32.065 C 165.709 31.462,165.294 29.941,165.080 28.686 C 164.682 26.364,163.772 24.490,162.874 24.145 C 162.156 23.870,137.222 24.015,136.425 24.299 M245.976 24.265 C 244.303 24.750,244.437 15.927,244.437 125.476 L 244.437 224.558 245.471 225.390 L 246.506 226.221 257.638 226.300 C 271.014 226.395,271.720 226.347,272.259 225.304 C 272.612 224.623,272.648 215.071,272.648 124.714 L 272.648 24.877 272.104 24.436 C 271.495 23.943,247.626 23.787,245.976 24.265 M324.273 82.784 C 323.995 83.118,323.920 85.843,323.862 97.679 C 323.800 110.238,323.740 112.221,323.414 112.581 C 322.616 113.463,321.195 113.544,306.538 113.544 C 293.511 113.544,292.176 113.581,291.867 113.953 C 291.591 114.285,291.528 116.349,291.528 125.020 L 291.528 135.678 292.270 135.837 C 292.678 135.924,299.414 136.009,307.239 136.025 C 320.591 136.053,321.520 136.083,322.329 136.513 C 323.784 137.288,323.780 137.241,323.796 152.652 C 323.809 166.559,323.813 166.655,324.330 167.123 C 324.820 167.567,325.419 167.599,334.691 167.669 L 344.532 167.744 345.070 167.060 L 345.608 166.376 345.535 152.638 L 345.461 138.899 346.018 137.762 C 346.890 135.983,346.197 136.054,362.507 136.054 C 376.596 136.054,377.210 136.035,377.771 135.581 L 378.355 135.108 378.356 125.377 C 378.357 116.583,378.315 115.546,377.915 114.602 L 377.473 113.558 362.453 113.489 C 347.809 113.422,347.412 113.407,346.568 112.911 L 345.702 112.403 345.578 97.945 C 345.483 86.808,345.382 83.360,345.137 82.931 L 344.819 82.375 334.715 82.375 C 325.621 82.375,324.578 82.416,324.273 82.784 " stroke="none" fill="#f9f9f9" fill-rule="evenodd"></path><path id="path1" d="M54.204 24.119 C 54.424 24.391,54.666 24.780,54.741 24.985 C 54.857 25.299,54.880 25.296,54.897 24.961 C 54.908 24.744,54.666 24.354,54.360 24.095 C 53.808 23.628,53.807 23.628,54.204 24.119 M272.881 24.119 C 273.101 24.391,273.343 24.780,273.418 24.985 C 273.533 25.299,273.557 25.296,273.574 24.961 C 273.584 24.744,273.343 24.354,273.036 24.095 C 272.485 23.628,272.483 23.628,272.881 24.119 M134.693 125.294 C 134.693 180.124,134.721 202.517,134.756 175.057 C 134.790 147.597,134.790 102.736,134.756 75.366 C 134.721 47.996,134.693 70.464,134.693 125.294 M221.512 37.353 C 221.512 43.816,221.544 46.459,221.583 43.228 C 221.622 39.997,221.622 34.709,221.583 31.478 C 221.544 28.247,221.512 30.891,221.512 37.353 M112.181 72.851 C 112.181 98.565,112.209 109.048,112.245 96.146 C 112.280 83.244,112.280 62.205,112.245 49.393 C 112.209 36.581,112.181 47.137,112.181 72.851 M273.697 33.148 C 273.697 35.937,273.733 37.078,273.778 35.683 C 273.822 34.289,273.822 32.007,273.778 30.612 C 273.733 29.218,273.697 30.359,273.697 33.148 M55.000 30.179 C 55.000 31.200,55.043 31.617,55.097 31.107 C 55.150 30.597,55.150 29.762,55.097 29.252 C 55.043 28.741,55.000 29.159,55.000 30.179 M25.322 37.229 C 25.323 38.590,25.364 39.115,25.415 38.396 C 25.465 37.677,25.464 36.564,25.413 35.922 C 25.363 35.281,25.322 35.869,25.322 37.229 M273.446 42.919 C 273.446 45.096,273.484 45.953,273.530 44.824 C 273.576 43.695,273.576 41.914,273.529 40.866 C 273.483 39.818,273.446 40.742,273.446 42.919 M55.038 94.743 C 55.038 125.015,55.067 137.400,55.102 122.263 C 55.137 107.127,55.137 82.359,55.102 67.223 C 55.067 52.087,55.038 64.471,55.038 94.743 M25.311 48.732 C 25.311 49.617,25.356 49.978,25.411 49.536 C 25.466 49.094,25.466 48.370,25.411 47.928 C 25.356 47.486,25.311 47.848,25.311 48.732 M273.678 55.782 C 273.679 56.871,273.722 57.285,273.775 56.703 C 273.827 56.122,273.826 55.231,273.773 54.724 C 273.720 54.218,273.677 54.694,273.678 55.782 M221.500 74.335 C 221.500 76.784,221.537 77.753,221.582 76.487 C 221.627 75.222,221.627 73.218,221.582 72.034 C 221.536 70.851,221.500 71.886,221.500 74.335 M330.798 81.818 C 333.349 81.858,337.523 81.858,340.074 81.818 C 342.625 81.778,340.538 81.745,335.436 81.745 C 330.334 81.745,328.247 81.778,330.798 81.818 M346.436 97.959 C 346.436 105.646,346.467 108.791,346.506 104.947 C 346.544 101.104,346.544 94.814,346.506 90.971 C 346.467 87.127,346.436 90.272,346.436 97.959 M221.519 139.270 C 221.519 168.998,221.548 181.160,221.583 166.296 C 221.618 151.432,221.618 127.109,221.583 112.245 C 221.548 97.381,221.519 109.542,221.519 139.270 M299.982 112.987 C 303.816 113.025,310.161 113.025,314.083 112.987 C 318.004 112.949,314.867 112.917,307.112 112.917 C 299.357 112.917,296.149 112.949,299.982 112.987 M355.288 112.987 C 359.335 113.025,365.959 113.025,370.006 112.987 C 374.054 112.949,370.742 112.918,362.647 112.918 C 354.552 112.918,351.240 112.949,355.288 112.987 M191.289 117.130 C 191.291 117.811,191.339 118.060,191.396 117.684 C 191.453 117.308,191.451 116.751,191.392 116.447 C 191.334 116.143,191.287 116.450,191.289 117.130 M379.288 119.481 C 379.288 120.093,379.336 120.343,379.395 120.037 C 379.454 119.731,379.454 119.230,379.395 118.924 C 379.336 118.618,379.288 118.868,379.288 119.481 M190.504 121.464 C 190.268 122.250,190.126 122.438,189.963 122.180 C 189.822 121.957,189.740 121.937,189.738 122.125 C 189.736 122.287,189.848 122.490,189.987 122.576 C 190.258 122.744,191.054 121.091,190.910 120.659 C 190.862 120.515,190.680 120.878,190.504 121.464 M379.288 122.696 C 379.288 123.309,379.336 123.559,379.395 123.253 C 379.454 122.947,379.454 122.446,379.395 122.140 C 379.336 121.834,379.288 122.084,379.288 122.696 M164.502 130.310 C 164.502 130.583,164.678 130.874,164.893 130.957 C 165.507 131.192,166.481 131.133,166.481 130.860 C 166.481 130.724,166.310 130.612,166.101 130.612 C 165.893 130.612,165.447 130.432,165.112 130.213 C 164.534 129.834,164.502 129.839,164.502 130.310 M164.376 178.231 C 164.376 203.946,164.405 214.428,164.440 201.526 C 164.476 188.624,164.476 167.585,164.440 154.773 C 164.405 141.961,164.376 152.517,164.376 178.231 M112.136 133.457 C 112.137 134.273,112.184 134.577,112.239 134.133 C 112.294 133.688,112.293 133.020,112.236 132.649 C 112.180 132.277,112.135 132.641,112.136 133.457 M322.905 140.878 C 322.906 141.967,322.949 142.381,323.001 141.799 C 323.054 141.217,323.053 140.327,323.000 139.820 C 322.947 139.314,322.904 139.790,322.905 140.878 M346.420 145.207 C 346.420 147.316,346.458 148.179,346.504 147.124 C 346.551 146.070,346.551 144.344,346.504 143.290 C 346.458 142.236,346.420 143.098,346.420 145.207 M81.990 149.784 C 81.990 153.865,82.023 155.570,82.065 153.571 C 82.106 151.573,82.107 148.233,82.065 146.150 C 82.024 144.067,81.990 145.702,81.990 149.784 M112.136 146.073 C 112.137 146.889,112.184 147.193,112.239 146.749 C 112.294 146.304,112.293 145.636,112.236 145.265 C 112.180 144.893,112.135 145.257,112.136 146.073 M346.674 157.328 C 346.674 160.526,346.709 161.834,346.752 160.235 C 346.796 158.636,346.796 156.020,346.752 154.422 C 346.709 152.823,346.674 154.131,346.674 157.328 M112.178 175.758 C 112.178 188.819,112.208 194.126,112.245 187.551 C 112.282 180.976,112.282 170.289,112.245 163.803 C 112.208 157.317,112.178 162.696,112.178 175.758 M322.926 161.039 C 322.926 164.100,322.961 165.353,323.005 163.822 C 323.048 162.291,323.048 159.787,323.005 158.256 C 322.961 156.725,322.926 157.978,322.926 161.039 M55.006 163.760 C 55.006 165.053,55.047 165.581,55.098 164.935 C 55.149 164.289,55.149 163.231,55.098 162.585 C 55.047 161.939,55.006 162.468,55.006 163.760 M273.678 164.378 C 273.679 165.467,273.722 165.881,273.775 165.300 C 273.827 164.718,273.826 163.827,273.773 163.321 C 273.720 162.814,273.677 163.290,273.678 164.378 M273.690 175.139 C 273.690 176.976,273.729 177.727,273.777 176.809 C 273.824 175.891,273.824 174.388,273.777 173.469 C 273.729 172.551,273.690 173.302,273.690 175.139 M54.993 175.015 C 54.995 175.832,55.041 176.136,55.096 175.691 C 55.151 175.247,55.150 174.579,55.093 174.207 C 55.037 173.835,54.992 174.199,54.993 175.015 M25.320 181.200 C 25.319 182.424,25.361 182.956,25.413 182.382 C 25.465 181.808,25.465 180.806,25.414 180.156 C 25.363 179.506,25.320 179.975,25.320 181.200 M273.676 180.829 C 273.676 181.849,273.720 182.267,273.773 181.756 C 273.827 181.246,273.827 180.411,273.773 179.901 C 273.720 179.391,273.676 179.808,273.676 180.829 M55.023 189.858 C 55.023 193.123,55.059 194.425,55.101 192.750 C 55.144 191.076,55.144 188.404,55.101 186.813 C 55.058 185.222,55.023 186.592,55.023 189.858 M273.443 187.631 C 273.444 189.536,273.483 190.283,273.530 189.290 C 273.577 188.298,273.576 186.740,273.529 185.827 C 273.481 184.915,273.443 185.727,273.443 187.631 M25.309 192.826 C 25.310 193.643,25.356 193.947,25.411 193.502 C 25.466 193.057,25.465 192.390,25.409 192.018 C 25.352 191.646,25.307 192.010,25.309 192.826 M273.667 194.187 C 273.667 194.935,273.714 195.241,273.770 194.867 C 273.827 194.493,273.827 193.881,273.770 193.506 C 273.714 193.132,273.667 193.438,273.667 194.187 M273.672 200.618 C 273.672 201.503,273.717 201.865,273.772 201.422 C 273.827 200.980,273.827 200.257,273.772 199.814 C 273.717 199.372,273.672 199.734,273.672 200.618 M221.465 206.555 C 221.465 207.168,221.513 207.418,221.572 207.112 C 221.631 206.806,221.631 206.305,221.572 205.999 C 221.513 205.693,221.465 205.943,221.465 206.555 M221.500 218.553 C 221.500 221.002,221.537 221.970,221.582 220.705 C 221.627 219.439,221.627 217.436,221.582 216.252 C 221.536 215.069,221.500 216.104,221.500 218.553 M55.473 227.505 C 55.711 227.567,56.101 227.567,56.339 227.505 C 56.577 227.443,56.382 227.392,55.906 227.392 C 55.430 227.392,55.235 227.443,55.473 227.505 " stroke="none" fill="#7c7c7c" fill-rule="evenodd"></path><path id="path2" d="M26.549 23.668 C 26.252 23.728,25.863 23.955,25.683 24.172 C 25.413 24.497,25.346 40.030,25.300 112.654 C 25.240 207.024,25.201 203.814,26.440 206.373 C 26.727 206.966,27.142 208.055,27.361 208.793 C 27.580 209.531,28.018 210.442,28.334 210.817 C 28.650 211.193,28.984 211.738,29.076 212.029 C 30.063 215.139,36.320 221.377,40.531 223.451 C 41.028 223.695,41.713 224.054,42.053 224.247 C 46.849 226.968,50.923 227.458,68.769 227.458 C 85.071 227.458,90.300 226.938,93.754 224.972 C 94.094 224.779,94.873 224.390,95.485 224.108 C 97.355 223.249,97.558 223.139,98.454 222.515 C 101.551 220.357,104.373 217.820,105.180 216.467 C 105.469 215.982,105.988 215.278,106.333 214.903 C 107.042 214.132,108.088 212.406,108.845 210.761 C 109.126 210.148,109.676 209.035,110.067 208.287 C 110.551 207.360,110.831 206.375,110.944 205.195 C 111.036 204.242,111.334 202.643,111.606 201.641 C 112.104 199.810,112.398 27.908,111.908 25.295 C 111.560 23.441,111.939 23.485,96.667 23.558 L 83.130 23.624 82.567 24.188 L 82.004 24.751 81.965 90.854 C 81.899 205.642,81.951 195.776,81.407 196.448 L 80.934 197.032 68.834 197.032 L 56.733 197.032 55.857 196.363 L 54.981 195.695 54.957 110.625 C 54.942 58.931,54.843 25.317,54.703 24.950 C 54.182 23.579,54.682 23.627,40.346 23.591 C 33.053 23.573,26.845 23.607,26.549 23.668 M136.302 23.680 C 135.962 23.742,135.489 23.967,135.250 24.180 C 134.711 24.662,134.560 224.521,135.099 225.702 C 135.707 227.037,136.227 227.087,149.232 227.084 C 163.000 227.081,162.826 227.096,163.651 225.882 L 164.255 224.993 164.257 178.730 C 164.259 129.140,164.250 129.648,165.147 130.236 C 165.463 130.443,165.883 130.612,166.081 130.612 C 166.334 130.612,166.602 131.329,166.983 133.024 C 167.281 134.351,167.792 136.207,168.117 137.150 C 168.442 138.092,168.883 139.799,169.098 140.942 C 169.312 142.086,169.757 143.738,170.086 144.614 C 170.416 145.489,170.854 147.172,171.060 148.354 C 171.266 149.535,171.701 151.175,172.027 151.998 C 172.353 152.821,172.744 154.314,172.896 155.316 C 173.049 156.317,173.377 157.598,173.625 158.160 C 174.307 159.706,174.347 159.859,174.649 162.065 C 174.804 163.191,175.188 164.729,175.503 165.482 C 175.819 166.236,176.198 167.641,176.346 168.605 C 176.494 169.569,176.846 170.880,177.128 171.517 C 177.410 172.155,177.851 173.926,178.108 175.454 C 178.366 176.982,178.757 178.665,178.978 179.194 C 179.200 179.724,179.653 181.449,179.986 183.029 C 180.319 184.608,180.804 186.518,181.064 187.274 C 181.324 188.030,181.719 189.618,181.941 190.804 C 182.163 191.989,182.607 193.542,182.928 194.253 C 183.249 194.965,183.643 196.438,183.803 197.526 C 183.963 198.615,184.356 200.152,184.676 200.942 C 184.997 201.733,185.389 203.291,185.548 204.405 C 185.707 205.520,186.099 206.993,186.419 207.679 C 186.738 208.365,187.116 209.744,187.258 210.744 C 187.576 212.988,187.724 213.587,188.267 214.842 C 188.503 215.387,188.873 216.977,189.091 218.377 C 189.309 219.777,189.706 221.353,189.975 221.880 C 190.243 222.406,190.537 223.298,190.627 223.862 C 191.139 227.066,191.043 227.046,206.432 227.067 C 220.555 227.087,220.345 227.108,221.166 225.574 C 221.486 224.975,221.614 25.809,221.295 24.802 C 220.902 23.565,220.163 23.500,206.361 23.500 C 192.095 23.500,192.038 23.507,191.680 25.137 C 191.595 25.529,191.507 46.555,191.486 71.861 C 191.447 119.443,191.428 120.424,190.480 122.195 C 190.036 123.024,189.833 122.594,189.254 119.604 C 188.964 118.108,188.454 115.937,188.121 114.780 C 187.787 113.624,187.343 111.732,187.134 110.575 C 186.925 109.419,186.538 108.023,186.274 107.474 C 186.010 106.924,185.617 105.374,185.400 104.028 C 185.184 102.682,184.744 101.016,184.424 100.326 C 184.104 99.637,183.766 98.349,183.674 97.464 C 183.574 96.503,183.222 95.260,182.798 94.372 C 182.320 93.370,182.002 92.165,181.820 90.662 C 181.651 89.272,181.334 88.017,180.977 87.322 C 180.662 86.710,180.281 85.370,180.131 84.344 C 179.981 83.319,179.629 81.962,179.349 81.329 C 179.068 80.695,178.621 78.967,178.355 77.488 C 178.089 76.009,177.708 74.338,177.510 73.774 C 177.311 73.211,176.810 71.207,176.397 69.320 C 175.983 67.432,175.481 65.495,175.280 65.014 C 175.079 64.533,174.729 63.038,174.503 61.692 C 174.277 60.347,173.899 58.800,173.662 58.256 C 172.972 56.666,172.899 56.390,172.652 54.441 C 172.518 53.381,172.166 52.109,171.830 51.465 C 171.470 50.775,171.130 49.490,170.951 48.140 C 170.768 46.768,170.425 45.478,170.038 44.714 C 169.680 44.008,169.281 42.580,169.096 41.344 C 168.920 40.165,168.551 38.756,168.277 38.214 C 168.002 37.673,167.596 36.080,167.375 34.674 C 167.154 33.269,166.758 31.599,166.496 30.964 C 166.233 30.328,165.898 29.196,165.751 28.448 C 164.703 23.110,165.939 23.492,149.855 23.534 C 142.741 23.553,136.642 23.618,136.302 23.680 M245.279 23.834 C 244.577 24.045,244.251 24.303,244.129 24.742 C 243.793 25.946,243.885 224.678,244.221 225.332 C 245.086 227.014,244.604 226.956,258.336 227.039 C 272.152 227.123,272.187 227.119,273.024 225.642 L 273.568 224.683 273.547 208.012 C 273.535 198.844,273.519 189.672,273.512 187.631 C 273.505 185.591,273.524 153.643,273.555 116.636 C 273.587 79.629,273.546 47.959,273.465 46.259 C 273.384 44.558,273.417 39.442,273.538 34.889 C 273.777 25.910,273.688 24.795,272.674 23.998 C 271.906 23.393,247.231 23.245,245.279 23.834 M52.511 24.211 C 53.548 24.239,53.722 24.322,53.942 24.900 C 54.108 25.338,54.198 53.942,54.209 110.552 C 54.224 182.915,54.278 195.647,54.573 196.218 C 54.763 196.587,55.407 197.174,56.003 197.524 L 57.086 198.159 68.984 198.090 L 80.881 198.021 81.690 197.212 L 82.498 196.404 82.622 110.880 C 82.690 63.841,82.838 25.169,82.951 24.940 C 83.384 24.065,84.437 23.995,97.270 23.995 C 110.777 23.995,110.673 23.985,110.922 25.312 C 111.118 26.361,111.162 200.763,110.966 201.081 C 110.887 201.209,110.707 202.466,110.566 203.873 C 110.377 205.761,110.178 206.614,109.805 207.127 C 109.528 207.509,109.098 208.414,108.849 209.137 C 108.600 209.860,108.052 210.927,107.631 211.509 C 107.209 212.091,106.865 212.716,106.865 212.900 C 106.865 213.083,106.475 213.664,105.999 214.191 C 105.523 214.718,105.133 215.254,105.133 215.382 C 105.133 215.509,104.159 216.585,102.968 217.771 C 99.760 220.968,99.395 221.284,98.506 221.637 C 98.059 221.815,97.594 222.145,97.474 222.370 C 97.353 222.595,96.606 222.981,95.813 223.228 C 95.021 223.474,94.126 223.902,93.824 224.179 C 93.192 224.761,89.612 225.616,84.725 226.352 C 80.353 227.011,57.606 227.084,53.254 226.453 C 48.469 225.760,44.527 224.846,43.594 224.213 C 43.116 223.888,42.267 223.493,41.708 223.334 C 41.150 223.176,40.414 222.793,40.074 222.482 C 39.734 222.172,39.024 221.738,38.496 221.518 C 37.967 221.297,37.172 220.762,36.728 220.329 C 32.824 216.522,32.116 215.718,31.081 213.915 C 30.709 213.268,30.313 212.740,30.199 212.740 C 30.085 212.740,29.851 212.378,29.678 211.936 C 29.505 211.494,29.055 210.631,28.677 210.019 C 28.300 209.406,27.806 208.182,27.580 207.297 C 27.354 206.413,26.928 205.300,26.634 204.824 L 26.098 203.958 26.030 114.657 C 25.955 17.506,25.880 24.312,27.026 24.185 C 27.734 24.107,49.445 24.129,52.511 24.211 M162.874 24.145 C 163.772 24.490,164.682 26.364,165.080 28.686 C 165.294 29.941,165.709 31.462,166.001 32.065 C 166.293 32.668,166.677 34.188,166.855 35.443 C 167.042 36.762,167.444 38.292,167.807 39.071 C 168.153 39.811,168.507 41.036,168.594 41.792 C 168.817 43.738,169.181 45.039,169.711 45.783 C 169.992 46.178,170.269 47.241,170.432 48.550 C 170.692 50.646,171.202 52.490,171.680 53.066 C 171.814 53.228,172.047 54.295,172.196 55.437 C 172.346 56.579,172.773 58.293,173.146 59.246 C 173.518 60.198,173.957 61.959,174.122 63.160 C 174.286 64.360,174.688 66.085,175.014 66.994 C 175.341 67.902,175.827 69.886,176.093 71.403 C 176.360 72.920,176.749 74.422,176.957 74.743 C 177.165 75.063,177.461 76.104,177.614 77.056 C 178.232 80.895,178.357 81.409,178.829 82.064 C 179.144 82.500,179.420 83.503,179.597 84.848 C 179.777 86.219,180.090 87.339,180.493 88.064 C 180.927 88.843,181.187 89.837,181.359 91.370 C 181.621 93.712,181.880 94.623,182.468 95.273 C 182.671 95.497,183.000 96.770,183.200 98.104 C 183.401 99.437,183.828 101.146,184.151 101.903 C 184.473 102.659,184.901 104.355,185.102 105.671 C 185.303 106.988,185.694 108.546,185.971 109.135 C 186.249 109.723,186.665 111.373,186.897 112.801 C 187.129 114.230,187.568 116.067,187.874 116.883 C 188.179 117.700,188.567 119.369,188.737 120.594 C 189.224 124.108,189.637 124.747,190.976 124.054 C 192.417 123.309,192.321 126.558,192.455 73.757 L 192.579 24.941 193.163 24.468 C 193.721 24.016,194.310 23.995,206.324 23.995 C 220.104 23.995,219.929 23.977,220.369 25.448 C 220.599 26.213,220.798 67.399,220.607 74.459 C 220.583 75.343,220.599 107.180,220.642 145.207 C 220.685 183.234,220.638 215.572,220.537 217.069 C 220.423 218.769,220.461 220.663,220.639 222.119 L 220.923 224.448 219.997 225.397 L 219.071 226.345 206.567 226.347 C 191.490 226.350,191.228 226.295,191.216 223.154 C 191.215 222.800,190.926 221.899,190.575 221.150 C 190.183 220.314,189.803 218.837,189.589 217.316 C 189.398 215.955,188.974 214.230,188.646 213.482 C 188.319 212.733,187.928 211.179,187.777 210.027 C 187.610 208.746,187.272 207.490,186.906 206.790 C 186.566 206.139,186.192 204.808,186.037 203.697 C 185.713 201.367,185.359 199.982,184.909 199.280 C 184.726 198.996,184.399 197.706,184.181 196.413 C 183.963 195.121,183.519 193.506,183.195 192.826 C 182.866 192.134,182.431 190.457,182.208 189.019 C 181.989 187.605,181.586 185.941,181.312 185.322 C 181.038 184.703,180.645 183.143,180.438 181.856 C 180.231 180.569,179.792 178.878,179.464 178.097 C 179.131 177.306,178.743 175.660,178.587 174.377 C 178.294 171.972,178.043 171.061,177.502 170.440 C 177.324 170.235,177.045 169.122,176.882 167.965 C 176.719 166.809,176.313 165.195,175.980 164.378 C 175.648 163.562,175.255 162.004,175.107 160.915 C 174.960 159.827,174.527 158.101,174.145 157.081 C 173.764 156.061,173.289 154.332,173.089 153.239 C 172.890 152.146,172.505 150.755,172.233 150.147 C 171.961 149.539,171.558 147.953,171.338 146.623 C 171.117 145.293,170.706 143.751,170.424 143.198 C 170.141 142.644,169.696 140.919,169.434 139.364 C 169.172 137.808,168.745 136.118,168.484 135.607 C 168.224 135.096,167.832 133.644,167.614 132.379 C 167.223 130.116,166.682 128.633,166.246 128.633 C 166.124 128.633,165.681 128.344,165.261 127.991 L 164.497 127.348 164.067 128.300 C 163.664 129.191,163.628 132.326,163.513 177.142 C 163.410 216.991,163.333 225.100,163.053 225.437 C 162.377 226.252,160.998 226.342,149.197 226.344 L 137.479 226.345 136.405 225.665 L 135.330 224.985 135.325 125.046 C 135.322 70.080,135.402 24.986,135.502 24.836 C 135.982 24.116,137.423 24.034,149.825 24.015 C 156.787 24.004,162.659 24.063,162.874 24.145 M272.104 24.436 L 272.648 24.877 272.648 124.714 C 272.648 215.071,272.612 224.623,272.259 225.304 C 271.720 226.347,271.014 226.395,257.638 226.300 L 246.506 226.221 245.471 225.390 L 244.437 224.558 244.437 125.476 C 244.437 15.927,244.303 24.750,245.976 24.265 C 247.626 23.787,271.495 23.943,272.104 24.436 M323.810 82.366 L 323.191 82.841 323.118 97.467 L 323.045 112.094 322.005 112.566 C 321.019 113.013,320.197 113.038,306.314 113.043 L 291.663 113.049 291.224 113.718 C 290.508 114.810,290.417 134.956,291.124 135.829 L 291.607 136.425 306.533 136.549 C 314.743 136.617,321.608 136.769,321.789 136.886 C 323.009 137.673,323.067 138.409,323.067 152.962 L 323.067 166.614 323.671 167.502 C 324.129 168.176,324.502 168.428,325.217 168.546 C 326.542 168.765,344.411 168.739,344.713 168.518 C 344.849 168.418,345.332 167.904,345.786 167.376 L 346.611 166.415 346.531 152.904 C 346.446 138.509,346.500 137.713,347.619 136.929 C 348.093 136.598,350.031 136.549,362.764 136.549 C 379.549 136.548,378.930 136.623,379.280 134.570 C 379.677 132.242,379.349 115.233,378.890 114.355 C 378.193 113.021,378.537 113.049,362.823 113.049 L 348.125 113.049 347.285 112.483 L 346.444 111.916 346.312 97.331 C 346.239 89.309,346.155 82.721,346.126 82.690 C 345.168 81.688,325.073 81.396,323.810 82.366 M345.137 82.931 C 345.382 83.360,345.483 86.808,345.578 97.945 L 345.702 112.403 346.568 112.911 C 347.412 113.407,347.809 113.422,362.453 113.489 L 377.473 113.558 377.915 114.602 C 378.315 115.546,378.357 116.583,378.356 125.377 L 378.355 135.108 377.771 135.581 C 377.210 136.035,376.596 136.054,362.507 136.054 C 346.197 136.054,346.890 135.983,346.018 137.762 L 345.461 138.899 345.535 152.638 L 345.608 166.376 345.070 167.060 L 344.532 167.744 334.691 167.669 C 325.419 167.599,324.820 167.567,324.330 167.123 C 323.813 166.655,323.809 166.559,323.796 152.652 C 323.780 137.241,323.784 137.288,322.329 136.513 C 321.520 136.083,320.591 136.053,307.239 136.025 C 299.414 136.009,292.678 135.924,292.270 135.837 L 291.528 135.678 291.528 125.020 C 291.528 116.349,291.591 114.285,291.867 113.953 C 292.176 113.581,293.511 113.544,306.538 113.544 C 321.195 113.544,322.616 113.463,323.414 112.581 C 323.740 112.221,323.800 110.238,323.862 97.679 C 323.920 85.843,323.995 83.118,324.273 82.784 C 324.578 82.416,325.621 82.375,334.715 82.375 L 344.819 82.375 345.137 82.931 " stroke="none" fill="#848484" fill-rule="evenodd"></path><path id="path3" d="M0.000 123.686 L 0.000 247.372 200.000 247.372 L 400.000 247.372 400.000 123.686 L 400.000 0.000 200.000 0.000 L 0.000 0.000 0.000 123.686 M54.586 23.381 C 56.148 24.404,56.024 18.058,56.082 99.938 C 56.110 140.823,56.138 179.084,56.144 184.963 L 56.153 195.654 56.710 195.972 C 57.486 196.415,80.018 196.436,80.788 195.993 L 81.303 195.697 81.343 109.908 L 81.382 24.119 81.990 23.584 C 82.897 22.788,84.699 22.706,98.483 22.840 C 111.473 22.966,111.608 22.979,112.572 24.140 C 112.876 24.507,112.925 36.748,112.925 112.901 L 112.925 201.237 112.353 202.325 C 111.993 203.012,111.694 204.184,111.544 205.499 C 111.292 207.723,110.895 208.951,110.258 209.479 C 110.042 209.659,109.788 210.159,109.695 210.592 C 109.479 211.591,108.654 213.234,108.368 213.234 C 108.248 213.234,108.043 213.541,107.912 213.915 C 107.781 214.289,107.269 215.079,106.774 215.670 C 106.280 216.261,105.875 216.838,105.875 216.953 C 105.875 217.555,100.930 221.954,99.639 222.501 C 99.191 222.691,98.687 223.073,98.518 223.351 C 98.341 223.644,97.652 224.019,96.879 224.243 C 96.146 224.457,95.346 224.852,95.101 225.123 C 94.857 225.393,94.036 225.785,93.277 225.994 C 92.519 226.203,91.481 226.597,90.971 226.870 C 89.233 227.799,86.170 227.947,68.646 227.947 C 51.121 227.947,48.058 227.799,46.320 226.870 C 45.810 226.597,44.725 226.191,43.908 225.968 C 43.092 225.745,42.146 225.302,41.806 224.985 C 41.466 224.668,40.729 224.288,40.169 224.140 C 39.609 223.991,38.874 223.593,38.536 223.255 C 38.197 222.916,37.511 222.468,37.010 222.259 C 36.509 222.050,35.974 221.604,35.821 221.267 C 35.668 220.931,35.392 220.656,35.208 220.656 C 34.663 220.656,30.427 216.209,30.427 215.637 C 30.427 215.455,30.096 214.989,29.691 214.601 C 29.287 214.214,28.777 213.358,28.558 212.700 C 28.340 212.041,28.053 211.503,27.921 211.503 C 27.624 211.503,26.729 209.574,26.722 208.919 C 26.719 208.654,26.427 208.020,26.074 207.511 C 24.662 205.473,24.726 209.878,24.719 114.162 C 24.715 65.863,24.717 25.884,24.724 25.321 C 24.742 23.880,25.368 23.200,26.868 22.990 C 29.619 22.604,53.923 22.946,54.586 23.381 M273.374 23.391 C 273.758 23.590,274.190 23.972,274.333 24.239 C 274.784 25.082,274.693 224.671,274.242 225.545 C 273.007 227.932,273.407 227.877,258.009 227.782 C 244.340 227.698,244.517 227.718,243.704 226.235 C 243.281 225.463,242.896 31.812,243.307 26.283 C 243.545 23.066,243.389 23.154,249.143 23.006 C 258.449 22.765,272.598 22.990,273.374 23.391 M164.369 23.389 C 165.300 23.830,165.568 24.322,165.985 26.358 C 166.152 27.167,166.375 27.941,166.483 28.077 C 166.828 28.515,167.475 30.983,167.849 33.290 C 168.049 34.525,168.482 36.198,168.811 37.009 C 169.150 37.843,169.521 39.472,169.664 40.760 C 169.852 42.437,170.047 43.174,170.408 43.561 C 170.952 44.145,171.321 45.572,171.552 47.990 C 171.660 49.110,171.892 49.868,172.317 50.488 C 172.785 51.169,172.989 51.922,173.188 53.704 C 173.352 55.163,173.611 56.260,173.884 56.648 C 174.495 57.517,174.828 58.720,175.014 60.730 C 175.113 61.803,175.399 62.900,175.767 63.616 C 176.126 64.316,176.506 65.751,176.732 67.263 C 176.937 68.634,177.277 70.019,177.488 70.341 C 177.700 70.664,178.099 72.139,178.376 73.621 C 178.653 75.102,179.254 77.706,179.712 79.406 C 180.170 81.107,180.615 83.029,180.702 83.678 C 180.789 84.327,181.136 85.460,181.473 86.195 C 181.855 87.030,182.186 88.399,182.354 89.839 C 182.545 91.486,182.798 92.447,183.235 93.199 C 183.648 93.911,183.952 95.009,184.172 96.583 C 184.400 98.215,184.660 99.132,185.040 99.646 C 185.441 100.188,185.673 101.073,185.928 103.029 C 186.174 104.918,186.422 105.888,186.795 106.411 C 187.147 106.905,187.431 107.929,187.663 109.540 C 187.853 110.858,188.227 112.335,188.493 112.823 C 188.760 113.311,189.153 114.813,189.366 116.162 C 190.533 123.536,190.578 122.050,190.718 71.243 C 190.790 45.252,190.943 24.217,191.063 24.032 C 191.693 23.054,192.429 23.006,206.531 23.006 C 220.691 23.006,221.080 23.034,221.779 24.099 C 222.395 25.040,222.419 225.088,221.802 226.280 C 220.992 227.848,220.839 227.862,205.764 227.779 C 190.078 227.694,191.356 227.924,190.159 224.970 C 189.056 222.249,188.802 221.371,188.512 219.291 C 188.362 218.212,187.970 216.654,187.640 215.830 C 187.310 215.006,186.920 213.333,186.774 212.113 C 186.593 210.613,186.305 209.517,185.882 208.727 C 185.445 207.909,185.181 206.874,185.003 205.274 C 184.822 203.657,184.576 202.697,184.157 201.983 C 183.742 201.274,183.491 200.304,183.311 198.714 C 183.026 196.202,182.923 195.829,182.256 194.914 C 181.969 194.520,181.671 193.397,181.467 191.936 C 181.280 190.598,180.906 189.134,180.596 188.525 C 180.296 187.939,179.881 186.384,179.673 185.071 C 179.464 183.758,179.040 182.072,178.730 181.323 C 178.419 180.575,177.973 178.850,177.739 177.489 C 177.504 176.129,177.001 174.069,176.622 172.913 C 176.243 171.756,175.851 170.142,175.751 169.326 C 175.651 168.510,175.299 167.304,174.969 166.647 C 174.569 165.852,174.286 164.694,174.120 163.184 C 173.955 161.677,173.636 160.375,173.171 159.307 C 172.745 158.329,172.408 157.021,172.310 155.968 C 172.206 154.840,171.928 153.808,171.512 153.008 C 171.071 152.159,170.769 150.986,170.537 149.218 C 170.305 147.452,170.044 146.436,169.697 145.949 C 169.390 145.518,169.012 144.234,168.727 142.655 C 168.470 141.232,168.092 139.805,167.886 139.483 C 167.579 139.003,166.506 134.632,166.471 133.716 C 166.466 133.573,166.271 133.791,166.038 134.199 C 165.645 134.890,165.607 138.084,165.492 180.087 L 165.368 225.232 164.649 226.171 C 163.428 227.768,164.040 227.699,150.317 227.780 C 136.159 227.864,135.332 227.797,134.629 226.512 C 134.176 225.684,133.929 25.819,134.379 24.221 C 134.709 23.051,134.849 23.040,149.622 23.022 C 161.717 23.008,163.668 23.056,164.369 23.389 M345.990 81.735 C 347.328 82.545,347.310 82.333,347.310 97.550 C 347.310 108.236,347.383 111.786,347.607 112.010 C 347.831 112.234,351.481 112.307,362.511 112.308 C 377.420 112.310,378.379 112.364,379.510 113.280 L 380.087 113.747 380.156 124.532 C 380.205 132.091,380.143 135.470,379.951 135.830 C 379.313 137.021,379.003 137.044,363.321 137.044 C 351.967 137.044,348.546 137.114,348.219 137.353 C 347.457 137.911,347.303 141.194,347.473 153.247 C 347.652 165.920,347.614 166.525,346.535 167.885 C 345.267 169.484,345.672 169.431,334.616 169.441 C 323.639 169.450,324.036 169.502,322.782 167.917 L 321.954 166.871 321.954 153.132 C 321.954 139.101,321.877 137.822,320.991 137.233 C 320.840 137.133,314.128 137.050,306.074 137.048 L 291.431 137.044 290.737 136.447 L 290.043 135.850 290.043 124.826 L 290.043 113.802 290.729 113.116 L 291.415 112.430 306.487 112.307 C 316.222 112.227,321.648 112.094,321.811 111.931 C 321.974 111.768,322.087 106.622,322.132 97.280 L 322.202 82.880 322.881 82.202 C 323.829 81.253,324.636 81.192,335.683 81.229 C 344.597 81.260,345.257 81.292,345.990 81.735 " stroke="none" fill="#040404" fill-rule="evenodd"></path><path id="path4" d="M26.868 22.990 C 25.368 23.200,24.742 23.880,24.724 25.321 C 24.717 25.884,24.715 65.863,24.719 114.162 C 24.726 209.878,24.662 205.473,26.074 207.511 C 26.427 208.020,26.719 208.654,26.722 208.919 C 26.729 209.574,27.624 211.503,27.921 211.503 C 28.053 211.503,28.340 212.041,28.558 212.700 C 28.777 213.358,29.287 214.214,29.691 214.601 C 30.096 214.989,30.427 215.455,30.427 215.637 C 30.427 216.209,34.663 220.656,35.208 220.656 C 35.392 220.656,35.668 220.931,35.821 221.267 C 35.974 221.604,36.509 222.050,37.010 222.259 C 37.511 222.468,38.197 222.916,38.536 223.255 C 38.874 223.593,39.609 223.991,40.169 224.140 C 40.729 224.288,41.466 224.668,41.806 224.985 C 42.146 225.302,43.092 225.745,43.908 225.968 C 44.725 226.191,45.810 226.597,46.320 226.870 C 48.058 227.799,51.121 227.947,68.646 227.947 C 86.170 227.947,89.233 227.799,90.971 226.870 C 91.481 226.597,92.519 226.203,93.277 225.994 C 94.036 225.785,94.857 225.393,95.101 225.123 C 95.346 224.852,96.146 224.457,96.879 224.243 C 97.652 224.019,98.341 223.644,98.518 223.351 C 98.687 223.073,99.191 222.691,99.639 222.501 C 100.930 221.954,105.875 217.555,105.875 216.953 C 105.875 216.838,106.280 216.261,106.774 215.670 C 107.269 215.079,107.781 214.289,107.912 213.915 C 108.043 213.541,108.248 213.234,108.368 213.234 C 108.654 213.234,109.479 211.591,109.695 210.592 C 109.788 210.159,110.042 209.659,110.258 209.479 C 110.895 208.951,111.292 207.723,111.544 205.499 C 111.694 204.184,111.993 203.012,112.353 202.325 L 112.925 201.237 112.925 112.901 C 112.925 36.748,112.876 24.507,112.572 24.140 C 111.608 22.979,111.473 22.966,98.483 22.840 C 84.699 22.706,82.897 22.788,81.990 23.584 L 81.382 24.119 81.343 109.908 L 81.303 195.697 80.788 195.993 C 80.018 196.436,57.486 196.415,56.710 195.972 L 56.153 195.654 56.144 184.963 C 56.138 179.084,56.110 140.823,56.082 99.938 C 56.024 18.058,56.148 24.404,54.586 23.381 C 53.923 22.946,29.619 22.604,26.868 22.990 M249.143 23.006 C 243.389 23.154,243.545 23.066,243.307 26.283 C 242.896 31.812,243.281 225.463,243.704 226.235 C 244.517 227.718,244.340 227.698,258.009 227.782 C 273.407 227.877,273.007 227.932,274.242 225.545 C 274.693 224.671,274.784 25.082,274.333 24.239 C 273.669 22.998,265.300 22.588,249.143 23.006 M135.121 23.310 C 134.812 23.459,134.478 23.869,134.379 24.221 C 133.929 25.819,134.176 225.684,134.629 226.512 C 135.332 227.797,136.159 227.864,150.317 227.780 C 164.040 227.699,163.428 227.768,164.649 226.171 L 165.368 225.232 165.492 180.087 C 165.607 138.084,165.645 134.890,166.038 134.199 C 166.271 133.791,166.466 133.573,166.471 133.716 C 166.506 134.632,167.579 139.003,167.886 139.483 C 168.092 139.805,168.470 141.232,168.727 142.655 C 169.012 144.234,169.390 145.518,169.697 145.949 C 170.044 146.436,170.305 147.452,170.537 149.218 C 170.769 150.986,171.071 152.159,171.512 153.008 C 171.928 153.808,172.206 154.840,172.310 155.968 C 172.408 157.021,172.745 158.329,173.171 159.307 C 173.636 160.375,173.955 161.677,174.120 163.184 C 174.286 164.694,174.569 165.852,174.969 166.647 C 175.299 167.304,175.651 168.510,175.751 169.326 C 175.851 170.142,176.243 171.756,176.622 172.913 C 177.001 174.069,177.504 176.129,177.739 177.489 C 177.973 178.850,178.419 180.575,178.730 181.323 C 179.040 182.072,179.464 183.758,179.673 185.071 C 179.881 186.384,180.296 187.939,180.596 188.525 C 180.906 189.134,181.280 190.598,181.467 191.936 C 181.671 193.397,181.969 194.520,182.256 194.914 C 182.923 195.829,183.026 196.202,183.311 198.714 C 183.491 200.304,183.742 201.274,184.157 201.983 C 184.576 202.697,184.822 203.657,185.003 205.274 C 185.181 206.874,185.445 207.909,185.882 208.727 C 186.305 209.517,186.593 210.613,186.774 212.113 C 186.920 213.333,187.310 215.006,187.640 215.830 C 187.970 216.654,188.362 218.212,188.512 219.291 C 188.802 221.371,189.056 222.249,190.159 224.970 C 191.356 227.924,190.078 227.694,205.764 227.779 C 220.839 227.862,220.992 227.848,221.802 226.280 C 222.419 225.088,222.395 25.040,221.779 24.099 C 221.080 23.034,220.691 23.006,206.531 23.006 C 192.429 23.006,191.693 23.054,191.063 24.032 C 190.943 24.217,190.790 45.252,190.718 71.243 C 190.578 122.050,190.533 123.536,189.366 116.162 C 189.153 114.813,188.760 113.311,188.493 112.823 C 188.227 112.335,187.853 110.858,187.663 109.540 C 187.431 107.929,187.147 106.905,186.795 106.411 C 186.422 105.888,186.174 104.918,185.928 103.029 C 185.673 101.073,185.441 100.188,185.040 99.646 C 184.660 99.132,184.400 98.215,184.172 96.583 C 183.952 95.009,183.648 93.911,183.235 93.199 C 182.798 92.447,182.545 91.486,182.354 89.839 C 182.186 88.399,181.855 87.030,181.473 86.195 C 181.136 85.460,180.789 84.327,180.702 83.678 C 180.615 83.029,180.170 81.107,179.712 79.406 C 179.254 77.706,178.653 75.102,178.376 73.621 C 178.099 72.139,177.700 70.664,177.488 70.341 C 177.277 70.019,176.937 68.634,176.732 67.263 C 176.506 65.751,176.126 64.316,175.767 63.616 C 175.399 62.900,175.113 61.803,175.014 60.730 C 174.828 58.720,174.495 57.517,173.884 56.648 C 173.611 56.260,173.352 55.163,173.188 53.704 C 172.989 51.922,172.785 51.169,172.317 50.488 C 171.892 49.868,171.660 49.110,171.552 47.990 C 171.321 45.572,170.952 44.145,170.408 43.561 C 170.047 43.174,169.852 42.437,169.664 40.760 C 169.521 39.472,169.150 37.843,168.811 37.009 C 168.482 36.198,168.049 34.525,167.849 33.290 C 167.475 30.983,166.828 28.515,166.483 28.077 C 166.375 27.941,166.152 27.167,165.985 26.358 C 165.248 22.764,166.416 23.002,149.622 23.022 C 140.065 23.034,135.507 23.124,135.121 23.310 M54.346 24.097 L 55.040 24.694 55.093 99.113 C 55.122 140.043,55.149 178.566,55.155 184.720 L 55.164 195.908 56.215 196.470 C 57.266 197.031,57.277 197.032,68.935 197.032 L 80.604 197.032 81.242 196.432 L 81.880 195.832 81.880 110.312 C 81.880 26.486,81.889 24.780,82.353 24.208 L 82.826 23.624 96.711 23.554 L 110.597 23.484 111.305 24.192 C 111.843 24.730,112.051 25.223,112.171 26.241 C 112.586 29.767,112.195 200.716,111.770 201.614 C 111.543 202.094,111.244 203.498,111.106 204.734 C 110.905 206.536,110.681 207.311,109.973 208.644 C 109.488 209.559,109.091 210.452,109.091 210.630 C 109.091 210.807,108.701 211.519,108.225 212.211 C 107.749 212.903,107.359 213.568,107.359 213.687 C 107.359 213.807,107.066 214.221,106.708 214.607 C 106.349 214.994,105.874 215.611,105.650 215.978 C 104.733 217.487,100.794 221.208,99.319 221.958 C 98.911 222.166,98.369 222.566,98.115 222.846 C 97.861 223.127,97.082 223.544,96.384 223.774 C 95.686 224.003,94.819 224.437,94.458 224.737 C 94.097 225.038,93.051 225.472,92.133 225.703 C 91.216 225.933,90.064 226.292,89.574 226.500 C 86.370 227.858,50.994 227.863,47.743 226.505 C 47.267 226.306,46.153 225.957,45.269 225.730 C 44.385 225.503,43.160 225.004,42.548 224.621 C 41.936 224.238,41.156 223.844,40.816 223.745 C 40.476 223.647,39.864 223.318,39.456 223.014 C 39.048 222.709,38.324 222.264,37.848 222.024 C 36.890 221.542,36.242 220.971,33.340 218.058 C 32.256 216.970,31.158 215.669,30.901 215.168 C 30.644 214.667,30.319 214.186,30.178 214.099 C 30.038 214.013,29.649 213.401,29.314 212.741 C 28.980 212.081,28.433 211.139,28.100 210.648 C 27.767 210.157,27.420 209.397,27.330 208.959 C 27.240 208.521,26.850 207.495,26.463 206.679 C 25.193 204.001,25.232 206.938,25.232 113.064 L 25.232 24.804 25.745 24.152 L 26.257 23.500 39.955 23.500 L 53.652 23.500 54.346 24.097 M163.952 23.996 C 164.863 24.551,165.081 25.011,165.638 27.541 C 165.852 28.516,166.296 30.111,166.625 31.085 C 166.953 32.059,167.341 33.729,167.487 34.796 C 167.632 35.862,168.020 37.328,168.348 38.053 C 168.676 38.777,169.016 40.113,169.102 41.021 C 169.201 42.058,169.560 43.362,170.069 44.527 C 170.618 45.783,170.935 46.977,171.050 48.223 C 171.158 49.385,171.437 50.489,171.807 51.221 C 172.130 51.859,172.555 53.376,172.751 54.593 C 172.947 55.810,173.348 57.336,173.644 57.984 C 173.939 58.632,174.336 60.127,174.527 61.306 C 174.719 62.486,175.107 64.119,175.391 64.935 C 175.674 65.751,176.070 67.270,176.269 68.309 C 176.469 69.348,176.965 71.383,177.371 72.830 C 177.777 74.278,178.287 76.489,178.503 77.743 C 178.720 78.998,179.151 80.637,179.461 81.385 C 179.772 82.134,180.104 83.414,180.199 84.230 C 180.293 85.046,180.644 86.318,180.977 87.057 C 181.311 87.795,181.749 89.504,181.952 90.854 C 182.187 92.418,182.532 93.680,182.903 94.335 C 183.267 94.977,183.590 96.142,183.765 97.444 C 183.925 98.636,184.258 99.888,184.544 100.373 C 184.834 100.864,185.207 102.278,185.431 103.734 C 185.644 105.115,186.034 106.703,186.297 107.262 C 186.560 107.821,186.988 109.379,187.248 110.725 C 187.508 112.071,187.886 113.634,188.088 114.197 C 188.291 114.761,188.755 116.709,189.120 118.526 C 189.957 122.690,190.051 122.863,190.592 121.235 C 191.387 118.844,191.448 115.225,191.457 70.332 C 191.462 42.414,191.555 25.277,191.702 24.889 C 192.229 23.503,192.257 23.500,206.481 23.501 C 221.055 23.501,221.093 23.505,221.430 25.108 C 221.516 25.516,221.600 70.696,221.616 125.508 L 221.645 225.166 220.685 226.127 L 219.724 227.087 206.491 227.087 C 191.840 227.087,191.911 227.094,191.161 225.558 C 190.308 223.808,189.209 219.984,188.790 217.308 C 188.640 216.352,188.298 215.072,188.031 214.464 C 187.763 213.856,187.418 212.412,187.263 211.255 C 187.108 210.099,186.706 208.545,186.369 207.803 C 186.033 207.061,185.642 205.614,185.501 204.587 C 185.359 203.561,184.972 202.053,184.640 201.237 C 184.308 200.421,183.918 198.918,183.774 197.897 C 183.629 196.877,183.198 195.256,182.815 194.296 C 182.432 193.335,181.998 191.775,181.851 190.829 C 181.705 189.883,181.353 188.443,181.069 187.628 C 180.785 186.814,180.286 184.867,179.959 183.302 C 179.632 181.738,179.149 179.901,178.886 179.221 C 178.622 178.541,178.221 176.816,177.995 175.389 C 177.769 173.962,177.361 172.293,177.089 171.679 C 176.816 171.065,176.431 169.636,176.233 168.503 C 176.034 167.370,175.665 166.035,175.412 165.535 C 175.158 165.035,174.767 163.457,174.543 162.028 C 174.318 160.600,173.923 159.025,173.665 158.530 C 173.407 158.034,173.020 156.609,172.805 155.363 C 172.590 154.117,172.147 152.464,171.822 151.688 C 171.496 150.913,171.152 149.610,171.056 148.794 C 170.961 147.978,170.563 146.364,170.171 145.207 C 169.780 144.051,169.286 142.270,169.075 141.249 C 168.863 140.229,168.427 138.559,168.107 137.539 C 167.787 136.518,167.277 134.654,166.974 133.395 C 166.477 131.332,166.367 131.107,165.854 131.107 C 165.541 131.107,165.109 131.039,164.893 130.957 C 164.537 130.820,164.502 135.048,164.501 177.772 L 164.500 224.737 163.985 225.603 C 163.054 227.167,163.816 227.087,149.852 227.087 C 135.521 227.087,135.601 227.096,134.931 225.492 C 134.412 224.250,134.501 24.798,135.021 24.172 C 135.520 23.570,135.530 23.570,149.784 23.535 C 162.729 23.503,163.167 23.517,163.952 23.996 M272.995 24.074 L 273.662 24.647 273.656 124.741 L 273.650 224.834 273.105 225.717 C 272.237 227.120,272.575 227.087,258.990 227.087 C 245.068 227.087,245.046 227.085,244.268 225.581 C 243.954 224.974,243.916 212.035,243.970 124.625 L 244.032 24.366 244.898 23.934 C 245.690 23.538,246.896 23.501,259.046 23.501 L 272.329 23.500 272.995 24.074 M324.859 81.360 C 323.910 81.479,323.376 81.706,322.881 82.202 L 322.202 82.880 322.132 97.280 C 322.087 106.622,321.974 111.768,321.811 111.931 C 321.648 112.094,316.222 112.227,306.487 112.307 L 291.415 112.430 290.729 113.116 L 290.043 113.802 290.043 124.826 L 290.043 135.850 290.737 136.447 L 291.431 137.044 306.074 137.048 C 314.128 137.050,320.840 137.133,320.991 137.233 C 321.877 137.822,321.954 139.101,321.954 153.132 L 321.954 166.871 322.782 167.917 C 324.036 169.502,323.639 169.450,334.616 169.441 C 348.873 169.428,347.722 170.878,347.473 153.247 C 347.303 141.194,347.457 137.911,348.219 137.353 C 348.546 137.114,351.967 137.044,363.321 137.044 C 379.003 137.044,379.313 137.021,379.951 135.830 C 380.143 135.470,380.205 132.091,380.156 124.532 L 380.087 113.747 379.510 113.280 C 378.379 112.364,377.420 112.310,362.511 112.308 C 351.481 112.307,347.831 112.234,347.607 112.010 C 347.383 111.786,347.310 108.236,347.310 97.550 C 347.310 82.333,347.328 82.545,345.990 81.735 C 345.171 81.240,328.219 80.939,324.859 81.360 M345.254 82.115 C 346.536 82.897,346.565 83.248,346.566 98.262 L 346.568 112.047 347.298 112.424 C 347.927 112.750,350.008 112.801,362.474 112.801 C 378.370 112.801,378.209 112.787,378.963 114.265 C 379.432 115.185,379.748 133.492,379.324 135.184 C 378.984 136.536,378.831 136.548,362.857 136.557 C 346.556 136.566,347.594 136.452,346.916 138.307 C 346.565 139.269,346.538 140.603,346.683 149.907 C 346.905 164.134,346.773 166.400,345.647 167.716 L 344.798 168.707 334.700 168.707 L 324.603 168.707 323.835 167.833 C 322.863 166.726,322.963 168.438,322.950 152.752 C 322.940 140.399,322.900 139.063,322.512 138.235 C 321.676 136.452,322.608 136.549,306.361 136.549 C 291.909 136.549,291.738 136.543,291.193 136.036 L 290.642 135.522 290.714 124.669 C 290.766 116.798,290.865 113.736,291.075 113.526 C 291.681 112.920,293.915 112.823,307.483 112.811 C 320.936 112.800,321.489 112.781,322.258 112.313 L 323.056 111.826 323.123 97.357 C 323.200 80.991,323.040 82.168,325.229 81.863 C 328.433 81.416,344.438 81.618,345.254 82.115 " stroke="none" fill="#747474" fill-rule="evenodd"></path></g></svg>